<mxfile host="app.diagrams.net" agent="Mozilla/5.0 (Windows NT 10.0; Win64; x64) AppleWebKit/537.36 (KHTML, like Gecko) Chrome/133.0.0.0 Safari/537.36" version="26.0.11">
  <diagram id="Ht1M8jgEwFfnCIfOTk4-" name="Page-1">
    <mxGraphModel dx="1909" dy="1187" grid="1" gridSize="10" guides="1" tooltips="1" connect="1" arrows="1" fold="1" page="1" pageScale="1" pageWidth="1169" pageHeight="827" math="0" shadow="0">
      <root>
        <mxCell id="0" />
        <mxCell id="1" parent="0" />
        <mxCell id="UEzPUAAOIrF-is8g5C7q-130" style="edgeStyle=orthogonalEdgeStyle;rounded=0;orthogonalLoop=1;jettySize=auto;html=1;startArrow=open;startFill=0;endArrow=open;endFill=0;strokeWidth=2;strokeColor=#808080;" parent="1" edge="1">
          <mxGeometry relative="1" as="geometry">
            <Array as="points">
              <mxPoint x="350" y="339" />
              <mxPoint x="350" y="40" />
            </Array>
            <mxPoint x="308.49911285002645" y="339" as="sourcePoint" />
            <mxPoint x="450.5" y="40" as="targetPoint" />
          </mxGeometry>
        </mxCell>
        <mxCell id="UEzPUAAOIrF-is8g5C7q-131" style="edgeStyle=orthogonalEdgeStyle;rounded=0;orthogonalLoop=1;jettySize=auto;html=1;startArrow=open;startFill=0;endArrow=open;endFill=0;strokeWidth=2;strokeColor=#808080;" parent="1" edge="1">
          <mxGeometry relative="1" as="geometry">
            <Array as="points">
              <mxPoint x="361" y="359" />
              <mxPoint x="361" y="200" />
            </Array>
            <mxPoint x="310" y="359" as="sourcePoint" />
            <mxPoint x="450" y="200" as="targetPoint" />
          </mxGeometry>
        </mxCell>
        <mxCell id="UEzPUAAOIrF-is8g5C7q-132" style="edgeStyle=orthogonalEdgeStyle;rounded=0;orthogonalLoop=1;jettySize=auto;html=1;startArrow=open;startFill=0;endArrow=open;endFill=0;strokeWidth=2;strokeColor=#808080;entryX=0;entryY=0.5;entryDx=0;entryDy=0;entryPerimeter=0;" parent="1" edge="1" target="JEC0rMKXWwOTcZEWWvVR-31">
          <mxGeometry relative="1" as="geometry">
            <Array as="points">
              <mxPoint x="390" y="347" />
              <mxPoint x="390" y="300" />
            </Array>
            <mxPoint x="307.99911285002645" y="347" as="sourcePoint" />
            <mxPoint x="440" y="300" as="targetPoint" />
          </mxGeometry>
        </mxCell>
        <mxCell id="UEzPUAAOIrF-is8g5C7q-134" style="edgeStyle=orthogonalEdgeStyle;rounded=0;orthogonalLoop=1;jettySize=auto;html=1;startArrow=open;startFill=0;endArrow=open;endFill=0;strokeWidth=2;strokeColor=#808080;" parent="1" edge="1">
          <mxGeometry relative="1" as="geometry">
            <Array as="points">
              <mxPoint x="390.5" y="378.5" />
              <mxPoint x="390.5" y="517.5" />
            </Array>
            <mxPoint x="308.49911285002645" y="378.5" as="sourcePoint" />
            <mxPoint x="450.5" y="517.4666666666665" as="targetPoint" />
          </mxGeometry>
        </mxCell>
        <mxCell id="UEzPUAAOIrF-is8g5C7q-135" style="edgeStyle=orthogonalEdgeStyle;rounded=0;orthogonalLoop=1;jettySize=auto;html=1;startArrow=open;startFill=0;endArrow=open;endFill=0;strokeWidth=2;strokeColor=#808080;" parent="1" edge="1">
          <mxGeometry relative="1" as="geometry">
            <Array as="points">
              <mxPoint x="370.5" y="388.5" />
              <mxPoint x="370.5" y="640.5" />
            </Array>
            <mxPoint x="308.49911285002645" y="388.5" as="sourcePoint" />
            <mxPoint x="451.28600952643365" y="640.5333333333335" as="targetPoint" />
          </mxGeometry>
        </mxCell>
        <mxCell id="UEzPUAAOIrF-is8g5C7q-114" value="Amazon API&lt;br&gt;Gateway&lt;br&gt;" style="outlineConnect=0;fontColor=#232F3E;gradientColor=#945DF2;gradientDirection=north;fillColor=#5A30B5;strokeColor=#ffffff;dashed=0;verticalLabelPosition=bottom;verticalAlign=top;align=center;html=1;fontSize=12;fontStyle=0;aspect=fixed;shape=mxgraph.aws4.resourceIcon;resIcon=mxgraph.aws4.api_gateway;labelBackgroundColor=#ffffff;" parent="1" vertex="1">
          <mxGeometry x="230" y="335.5" width="78" height="78" as="geometry" />
        </mxCell>
        <mxCell id="ODmh6jd86_3PTmRy0pE--1" value="" style="sketch=0;outlineConnect=0;fontColor=#232F3E;gradientColor=none;fillColor=#232F3D;strokeColor=none;dashed=0;verticalLabelPosition=bottom;verticalAlign=top;align=center;html=1;fontSize=12;fontStyle=0;aspect=fixed;pointerEvents=1;shape=mxgraph.aws4.authenticated_user;" parent="1" vertex="1">
          <mxGeometry x="105" y="347" width="28" height="28" as="geometry" />
        </mxCell>
        <mxCell id="ODmh6jd86_3PTmRy0pE--2" value="" style="sketch=0;outlineConnect=0;fontColor=#232F3E;gradientColor=none;fillColor=#232F3D;strokeColor=none;dashed=0;verticalLabelPosition=bottom;verticalAlign=top;align=center;html=1;fontSize=12;fontStyle=0;aspect=fixed;pointerEvents=1;shape=mxgraph.aws4.client;" parent="1" vertex="1">
          <mxGeometry x="80" y="335.5" width="78" height="76" as="geometry" />
        </mxCell>
        <mxCell id="ODmh6jd86_3PTmRy0pE--5" value="auth-service" style="sketch=0;points=[[0,0,0],[0.25,0,0],[0.5,0,0],[0.75,0,0],[1,0,0],[0,1,0],[0.25,1,0],[0.5,1,0],[0.75,1,0],[1,1,0],[0,0.25,0],[0,0.5,0],[0,0.75,0],[1,0.25,0],[1,0.5,0],[1,0.75,0]];outlineConnect=0;fontColor=#232F3E;fillColor=#ED7100;strokeColor=#ffffff;dashed=0;verticalLabelPosition=bottom;verticalAlign=top;align=center;html=1;fontSize=12;fontStyle=0;aspect=fixed;shape=mxgraph.aws4.resourceIcon;resIcon=mxgraph.aws4.lambda;" parent="1" vertex="1">
          <mxGeometry x="450" y="10" width="70" height="70" as="geometry" />
        </mxCell>
        <mxCell id="ODmh6jd86_3PTmRy0pE--6" value="" style="edgeStyle=orthogonalEdgeStyle;html=1;endArrow=block;elbow=vertical;startArrow=block;startFill=1;endFill=1;strokeColor=#545B64;rounded=0;" parent="1" target="UEzPUAAOIrF-is8g5C7q-114" edge="1">
          <mxGeometry width="100" relative="1" as="geometry">
            <mxPoint x="158" y="373.95" as="sourcePoint" />
            <mxPoint x="218" y="373.95" as="targetPoint" />
          </mxGeometry>
        </mxCell>
        <mxCell id="JEC0rMKXWwOTcZEWWvVR-5" style="edgeStyle=orthogonalEdgeStyle;rounded=0;orthogonalLoop=1;jettySize=auto;html=1;exitX=1;exitY=0.25;exitDx=0;exitDy=0;" edge="1" parent="1" source="ODmh6jd86_3PTmRy0pE--8">
          <mxGeometry relative="1" as="geometry">
            <mxPoint x="780" y="29.636363636363626" as="targetPoint" />
          </mxGeometry>
        </mxCell>
        <mxCell id="ODmh6jd86_3PTmRy0pE--8" value="" style="strokeColor=#dddddd;shadow=1;strokeWidth=1;rounded=1;absoluteArcSize=1;arcSize=2;" parent="1" vertex="1">
          <mxGeometry x="620" y="15" width="100" height="60" as="geometry" />
        </mxCell>
        <mxCell id="ODmh6jd86_3PTmRy0pE--9" value="Firebase" style="sketch=0;dashed=0;connectable=0;html=1;fillColor=#5184F3;strokeColor=none;shape=mxgraph.gcp2.firebase;part=1;labelPosition=right;verticalLabelPosition=middle;align=left;verticalAlign=middle;spacingLeft=5;fontColor=#999999;fontSize=12;" parent="ODmh6jd86_3PTmRy0pE--8" vertex="1">
          <mxGeometry width="32.4" height="45" relative="1" as="geometry">
            <mxPoint x="5" y="7" as="offset" />
          </mxGeometry>
        </mxCell>
        <mxCell id="ODmh6jd86_3PTmRy0pE--11" value="" style="edgeStyle=orthogonalEdgeStyle;html=1;endArrow=block;elbow=vertical;startArrow=block;startFill=1;endFill=1;strokeColor=#545B64;rounded=0;" parent="1" edge="1">
          <mxGeometry width="100" relative="1" as="geometry">
            <mxPoint x="520" y="40" as="sourcePoint" />
            <mxPoint x="620" y="40" as="targetPoint" />
          </mxGeometry>
        </mxCell>
        <mxCell id="JEC0rMKXWwOTcZEWWvVR-2" value="Firebase Auth API" style="sketch=0;outlineConnect=0;fontColor=#232F3E;gradientColor=none;fillColor=#232F3D;strokeColor=none;dashed=0;verticalLabelPosition=bottom;verticalAlign=top;align=center;html=1;fontSize=12;fontStyle=0;aspect=fixed;pointerEvents=1;shape=mxgraph.aws4.authenticated_user;" vertex="1" parent="1">
          <mxGeometry x="790" y="15" width="37" height="37" as="geometry" />
        </mxCell>
        <mxCell id="JEC0rMKXWwOTcZEWWvVR-9" value="Email Verification" style="endArrow=classic;html=1;rounded=0;" edge="1" parent="1" target="ODmh6jd86_3PTmRy0pE--2">
          <mxGeometry x="0.9058" relative="1" as="geometry">
            <mxPoint x="790" y="40" as="sourcePoint" />
            <mxPoint x="670" y="130" as="targetPoint" />
            <Array as="points">
              <mxPoint x="730" y="40" />
              <mxPoint x="730" y="120" />
              <mxPoint x="670" y="120" />
              <mxPoint x="119" y="120" />
            </Array>
            <mxPoint y="-1" as="offset" />
          </mxGeometry>
        </mxCell>
        <mxCell id="JEC0rMKXWwOTcZEWWvVR-10" value="" style="shape=message;html=1;outlineConnect=0;" vertex="1" parent="JEC0rMKXWwOTcZEWWvVR-9">
          <mxGeometry width="20" height="14" relative="1" as="geometry">
            <mxPoint x="301" y="-10" as="offset" />
          </mxGeometry>
        </mxCell>
        <UserObject label="user-service" link="&#xa;&lt;a style=&quot;box-sizing: border-box; background-color: rgb(21, 27, 35); color: var(--fgColor-default) !important; text-decoration: none; font-family: -apple-system, BlinkMacSystemFont, &amp;quot;Segoe UI&amp;quot;, &amp;quot;Noto Sans&amp;quot;, Helvetica, Arial, sans-serif, &amp;quot;Apple Color Emoji&amp;quot;, &amp;quot;Segoe UI Emoji&amp;quot;; font-size: 14px; font-style: normal; font-variant-ligatures: normal; font-variant-caps: normal; font-weight: 400; letter-spacing: normal; orphans: 2; text-align: left; text-indent: 0px; text-transform: none; widows: 2; word-spacing: 0px; -webkit-text-stroke-width: 0px; white-space: nowrap;&quot; href=&quot;https://github.com/UTSC-CSCC01-Software-Engineering-I/term-group-project-c01w25-project-codelingo/tree/main/backend/user-service&quot; class=&quot;Link--primary&quot; aria-label=&quot;user-service, (Directory)&quot; title=&quot;user-service&quot;&gt;user-service&lt;/a&gt;&#xa;&#xa;" id="JEC0rMKXWwOTcZEWWvVR-11">
          <mxCell style="sketch=0;points=[[0,0,0],[0.25,0,0],[0.5,0,0],[0.75,0,0],[1,0,0],[0,1,0],[0.25,1,0],[0.5,1,0],[0.75,1,0],[1,1,0],[0,0.25,0],[0,0.5,0],[0,0.75,0],[1,0.25,0],[1,0.5,0],[1,0.75,0]];outlineConnect=0;fontColor=#232F3E;fillColor=#ED7100;strokeColor=#ffffff;dashed=0;verticalLabelPosition=bottom;verticalAlign=top;align=center;html=1;fontSize=12;fontStyle=0;aspect=fixed;shape=mxgraph.aws4.resourceIcon;resIcon=mxgraph.aws4.lambda;" vertex="1" parent="1">
            <mxGeometry x="450" y="155" width="70" height="70" as="geometry" />
          </mxCell>
        </UserObject>
        <mxCell id="JEC0rMKXWwOTcZEWWvVR-12" value="" style="verticalLabelPosition=bottom;html=1;verticalAlign=top;strokeWidth=1;align=center;outlineConnect=0;dashed=0;outlineConnect=0;shape=mxgraph.aws3d.email_service;fillColor=#ECECEC;strokeColor=#5E5E5E;aspect=fixed;" vertex="1" parent="1">
          <mxGeometry x="850" y="15" width="41" height="52.13" as="geometry" />
        </mxCell>
        <mxCell id="JEC0rMKXWwOTcZEWWvVR-21" style="edgeStyle=orthogonalEdgeStyle;rounded=0;orthogonalLoop=1;jettySize=auto;html=1;exitX=1;exitY=0.5;exitDx=0;exitDy=0;" edge="1" parent="1" source="JEC0rMKXWwOTcZEWWvVR-15" target="JEC0rMKXWwOTcZEWWvVR-19">
          <mxGeometry relative="1" as="geometry" />
        </mxCell>
        <mxCell id="JEC0rMKXWwOTcZEWWvVR-15" value="" style="strokeColor=#dddddd;shadow=1;strokeWidth=1;rounded=1;absoluteArcSize=1;arcSize=2;" vertex="1" parent="1">
          <mxGeometry x="620" y="165" width="100" height="60" as="geometry" />
        </mxCell>
        <mxCell id="JEC0rMKXWwOTcZEWWvVR-16" value="Firebase" style="sketch=0;dashed=0;connectable=0;html=1;fillColor=#5184F3;strokeColor=none;shape=mxgraph.gcp2.firebase;part=1;labelPosition=right;verticalLabelPosition=middle;align=left;verticalAlign=middle;spacingLeft=5;fontColor=#999999;fontSize=12;" vertex="1" parent="JEC0rMKXWwOTcZEWWvVR-15">
          <mxGeometry width="32.4" height="45" relative="1" as="geometry">
            <mxPoint x="5" y="7" as="offset" />
          </mxGeometry>
        </mxCell>
        <mxCell id="JEC0rMKXWwOTcZEWWvVR-17" value="" style="edgeStyle=orthogonalEdgeStyle;html=1;endArrow=block;elbow=vertical;startArrow=block;startFill=1;endFill=1;strokeColor=#545B64;rounded=0;" edge="1" parent="1">
          <mxGeometry width="100" relative="1" as="geometry">
            <mxPoint x="520" y="189.57000000000002" as="sourcePoint" />
            <mxPoint x="620" y="189.57000000000002" as="targetPoint" />
          </mxGeometry>
        </mxCell>
        <mxCell id="JEC0rMKXWwOTcZEWWvVR-19" value="UserTable" style="shape=cylinder3;whiteSpace=wrap;html=1;boundedLbl=1;backgroundOutline=1;size=15;" vertex="1" parent="1">
          <mxGeometry x="760" y="162.5" width="80" height="65" as="geometry" />
        </mxCell>
        <mxCell id="JEC0rMKXWwOTcZEWWvVR-22" value="**Note that on the first successful login&lt;div&gt;auth-service will make a request to user-service&lt;/div&gt;&lt;div&gt;to CREATE passing the uid that Firebase Auth API&amp;nbsp;&lt;/div&gt;&lt;div&gt;automatically creates&lt;/div&gt;" style="text;html=1;align=center;verticalAlign=middle;resizable=0;points=[];autosize=1;strokeColor=none;fillColor=none;" vertex="1" parent="1">
          <mxGeometry x="780" y="85" width="290" height="70" as="geometry" />
        </mxCell>
        <mxCell id="JEC0rMKXWwOTcZEWWvVR-26" style="edgeStyle=orthogonalEdgeStyle;rounded=0;orthogonalLoop=1;jettySize=auto;html=1;exitX=1;exitY=0.75;exitDx=0;exitDy=0;exitPerimeter=0;entryX=0;entryY=0.5;entryDx=0;entryDy=0;entryPerimeter=0;" edge="1" parent="1" source="ODmh6jd86_3PTmRy0pE--5" target="JEC0rMKXWwOTcZEWWvVR-11">
          <mxGeometry relative="1" as="geometry">
            <Array as="points">
              <mxPoint x="540" y="63" />
              <mxPoint x="540" y="110" />
              <mxPoint x="430" y="110" />
              <mxPoint x="430" y="190" />
            </Array>
          </mxGeometry>
        </mxCell>
        <mxCell id="JEC0rMKXWwOTcZEWWvVR-30" value="CREATE" style="edgeLabel;html=1;align=center;verticalAlign=middle;resizable=0;points=[];" vertex="1" connectable="0" parent="JEC0rMKXWwOTcZEWWvVR-26">
          <mxGeometry x="0.6655" y="-1" relative="1" as="geometry">
            <mxPoint y="-24" as="offset" />
          </mxGeometry>
        </mxCell>
        <UserObject label="lesson-service" link="&#xa;&lt;a style=&quot;box-sizing: border-box; background-color: rgb(21, 27, 35); color: var(--fgColor-default) !important; text-decoration: none; font-family: -apple-system, BlinkMacSystemFont, &amp;quot;Segoe UI&amp;quot;, &amp;quot;Noto Sans&amp;quot;, Helvetica, Arial, sans-serif, &amp;quot;Apple Color Emoji&amp;quot;, &amp;quot;Segoe UI Emoji&amp;quot;; font-size: 14px; font-style: normal; font-variant-ligatures: normal; font-variant-caps: normal; font-weight: 400; letter-spacing: normal; orphans: 2; text-align: left; text-indent: 0px; text-transform: none; widows: 2; word-spacing: 0px; -webkit-text-stroke-width: 0px; white-space: nowrap;&quot; href=&quot;https://github.com/UTSC-CSCC01-Software-Engineering-I/term-group-project-c01w25-project-codelingo/tree/main/backend/user-service&quot; class=&quot;Link--primary&quot; aria-label=&quot;user-service, (Directory)&quot; title=&quot;user-service&quot;&gt;user-service&lt;/a&gt;&#xa;&#xa;" id="JEC0rMKXWwOTcZEWWvVR-31">
          <mxCell style="sketch=0;points=[[0,0,0],[0.25,0,0],[0.5,0,0],[0.75,0,0],[1,0,0],[0,1,0],[0.25,1,0],[0.5,1,0],[0.75,1,0],[1,1,0],[0,0.25,0],[0,0.5,0],[0,0.75,0],[1,0.25,0],[1,0.5,0],[1,0.75,0]];outlineConnect=0;fontColor=#232F3E;fillColor=#ED7100;strokeColor=#ffffff;dashed=0;verticalLabelPosition=bottom;verticalAlign=top;align=center;html=1;fontSize=12;fontStyle=0;aspect=fixed;shape=mxgraph.aws4.resourceIcon;resIcon=mxgraph.aws4.lambda;" vertex="1" parent="1">
            <mxGeometry x="450" y="265.5" width="70" height="70" as="geometry" />
          </mxCell>
        </UserObject>
        <mxCell id="JEC0rMKXWwOTcZEWWvVR-34" value="" style="strokeColor=#dddddd;shadow=1;strokeWidth=1;rounded=1;absoluteArcSize=1;arcSize=2;" vertex="1" parent="1">
          <mxGeometry x="620" y="275.5" width="100" height="60" as="geometry" />
        </mxCell>
        <mxCell id="JEC0rMKXWwOTcZEWWvVR-35" value="Firebase" style="sketch=0;dashed=0;connectable=0;html=1;fillColor=#5184F3;strokeColor=none;shape=mxgraph.gcp2.firebase;part=1;labelPosition=right;verticalLabelPosition=middle;align=left;verticalAlign=middle;spacingLeft=5;fontColor=#999999;fontSize=12;" vertex="1" parent="JEC0rMKXWwOTcZEWWvVR-34">
          <mxGeometry width="32.4" height="45" relative="1" as="geometry">
            <mxPoint x="5" y="7" as="offset" />
          </mxGeometry>
        </mxCell>
        <UserObject label="match-making-service&lt;div&gt;&lt;br&gt;&lt;/div&gt;" link="&#xa;&lt;a style=&quot;box-sizing: border-box; background-color: rgb(21, 27, 35); color: var(--fgColor-default) !important; text-decoration: none; font-family: -apple-system, BlinkMacSystemFont, &amp;quot;Segoe UI&amp;quot;, &amp;quot;Noto Sans&amp;quot;, Helvetica, Arial, sans-serif, &amp;quot;Apple Color Emoji&amp;quot;, &amp;quot;Segoe UI Emoji&amp;quot;; font-size: 14px; font-style: normal; font-variant-ligatures: normal; font-variant-caps: normal; font-weight: 400; letter-spacing: normal; orphans: 2; text-align: left; text-indent: 0px; text-transform: none; widows: 2; word-spacing: 0px; -webkit-text-stroke-width: 0px; white-space: nowrap;&quot; href=&quot;https://github.com/UTSC-CSCC01-Software-Engineering-I/term-group-project-c01w25-project-codelingo/tree/main/backend/user-service&quot; class=&quot;Link--primary&quot; aria-label=&quot;user-service, (Directory)&quot; title=&quot;user-service&quot;&gt;user-service&lt;/a&gt;&#xa;&#xa;" id="JEC0rMKXWwOTcZEWWvVR-36">
          <mxCell style="sketch=0;points=[[0,0,0],[0.25,0,0],[0.5,0,0],[0.75,0,0],[1,0,0],[0,1,0],[0.25,1,0],[0.5,1,0],[0.75,1,0],[1,1,0],[0,0.25,0],[0,0.5,0],[0,0.75,0],[1,0.25,0],[1,0.5,0],[1,0.75,0]];outlineConnect=0;fontColor=#232F3E;fillColor=#ED7100;strokeColor=#ffffff;dashed=0;verticalLabelPosition=bottom;verticalAlign=top;align=center;html=1;fontSize=12;fontStyle=0;aspect=fixed;shape=mxgraph.aws4.resourceIcon;resIcon=mxgraph.aws4.lambda;" vertex="1" parent="1">
            <mxGeometry x="450" y="480" width="70" height="70" as="geometry" />
          </mxCell>
        </UserObject>
        <UserObject label="problem-service" link="&#xa;&lt;a style=&quot;box-sizing: border-box; background-color: rgb(21, 27, 35); color: var(--fgColor-default) !important; text-decoration: none; font-family: -apple-system, BlinkMacSystemFont, &amp;quot;Segoe UI&amp;quot;, &amp;quot;Noto Sans&amp;quot;, Helvetica, Arial, sans-serif, &amp;quot;Apple Color Emoji&amp;quot;, &amp;quot;Segoe UI Emoji&amp;quot;; font-size: 14px; font-style: normal; font-variant-ligatures: normal; font-variant-caps: normal; font-weight: 400; letter-spacing: normal; orphans: 2; text-align: left; text-indent: 0px; text-transform: none; widows: 2; word-spacing: 0px; -webkit-text-stroke-width: 0px; white-space: nowrap;&quot; href=&quot;https://github.com/UTSC-CSCC01-Software-Engineering-I/term-group-project-c01w25-project-codelingo/tree/main/backend/user-service&quot; class=&quot;Link--primary&quot; aria-label=&quot;user-service, (Directory)&quot; title=&quot;user-service&quot;&gt;user-service&lt;/a&gt;&#xa;&#xa;" id="JEC0rMKXWwOTcZEWWvVR-38">
          <mxCell style="sketch=0;points=[[0,0,0],[0.25,0,0],[0.5,0,0],[0.75,0,0],[1,0,0],[0,1,0],[0.25,1,0],[0.5,1,0],[0.75,1,0],[1,1,0],[0,0.25,0],[0,0.5,0],[0,0.75,0],[1,0.25,0],[1,0.5,0],[1,0.75,0]];outlineConnect=0;fontColor=#232F3E;fillColor=#ED7100;strokeColor=#ffffff;dashed=0;verticalLabelPosition=bottom;verticalAlign=top;align=center;html=1;fontSize=12;fontStyle=0;aspect=fixed;shape=mxgraph.aws4.resourceIcon;resIcon=mxgraph.aws4.lambda;" vertex="1" parent="1">
            <mxGeometry x="450" y="610" width="70" height="70" as="geometry" />
          </mxCell>
        </UserObject>
        <mxCell id="JEC0rMKXWwOTcZEWWvVR-41" value="lessonTable" style="shape=cylinder3;whiteSpace=wrap;html=1;boundedLbl=1;backgroundOutline=1;size=15;" vertex="1" parent="1">
          <mxGeometry x="760" y="282" width="80" height="65" as="geometry" />
        </mxCell>
        <mxCell id="JEC0rMKXWwOTcZEWWvVR-42" style="edgeStyle=orthogonalEdgeStyle;rounded=0;orthogonalLoop=1;jettySize=auto;html=1;exitX=1;exitY=0.5;exitDx=0;exitDy=0;entryX=0;entryY=0;entryDx=0;entryDy=23.75;entryPerimeter=0;" edge="1" parent="1" source="JEC0rMKXWwOTcZEWWvVR-34" target="JEC0rMKXWwOTcZEWWvVR-41">
          <mxGeometry relative="1" as="geometry" />
        </mxCell>
        <mxCell id="JEC0rMKXWwOTcZEWWvVR-43" value="" style="edgeStyle=orthogonalEdgeStyle;html=1;endArrow=block;elbow=vertical;startArrow=block;startFill=1;endFill=1;strokeColor=#545B64;rounded=0;" edge="1" parent="1">
          <mxGeometry width="100" relative="1" as="geometry">
            <mxPoint x="520" y="304.94000000000005" as="sourcePoint" />
            <mxPoint x="620" y="304.94000000000005" as="targetPoint" />
          </mxGeometry>
        </mxCell>
        <mxCell id="JEC0rMKXWwOTcZEWWvVR-44" value="N-Match Sessions" style="sketch=0;points=[[0,0,0],[0.25,0,0],[0.5,0,0],[0.75,0,0],[1,0,0],[0,1,0],[0.25,1,0],[0.5,1,0],[0.75,1,0],[1,1,0],[0,0.25,0],[0,0.5,0],[0,0.75,0],[1,0.25,0],[1,0.5,0],[1,0.75,0]];outlineConnect=0;fontColor=#232F3E;fillColor=#ED7100;strokeColor=#ffffff;dashed=0;verticalLabelPosition=bottom;verticalAlign=top;align=center;html=1;fontSize=12;fontStyle=0;aspect=fixed;shape=mxgraph.aws4.resourceIcon;resIcon=mxgraph.aws4.eks;" vertex="1" parent="1">
          <mxGeometry x="620" y="472" width="78" height="78" as="geometry" />
        </mxCell>
        <mxCell id="JEC0rMKXWwOTcZEWWvVR-45" value="" style="edgeStyle=orthogonalEdgeStyle;html=1;endArrow=block;elbow=vertical;startArrow=block;startFill=1;endFill=1;strokeColor=#545B64;rounded=0;" edge="1" parent="1">
          <mxGeometry width="100" relative="1" as="geometry">
            <mxPoint x="520" y="514.5" as="sourcePoint" />
            <mxPoint x="620" y="514.5" as="targetPoint" />
          </mxGeometry>
        </mxCell>
        <mxCell id="JEC0rMKXWwOTcZEWWvVR-46" value="*each match session is assigned a container&lt;div&gt;and given a match-id&lt;/div&gt;" style="text;html=1;align=center;verticalAlign=middle;resizable=0;points=[];autosize=1;strokeColor=none;fillColor=none;" vertex="1" parent="1">
          <mxGeometry x="750" y="465" width="260" height="40" as="geometry" />
        </mxCell>
        <mxCell id="JEC0rMKXWwOTcZEWWvVR-48" value="" style="edgeStyle=orthogonalEdgeStyle;html=1;endArrow=block;elbow=vertical;startArrow=block;startFill=1;endFill=1;strokeColor=#545B64;rounded=0;entryX=0.5;entryY=0;entryDx=0;entryDy=0;entryPerimeter=0;" edge="1" parent="1" target="JEC0rMKXWwOTcZEWWvVR-44">
          <mxGeometry width="100" relative="1" as="geometry">
            <mxPoint x="450" y="210" as="sourcePoint" />
            <mxPoint x="660" y="440.00000000000006" as="targetPoint" />
            <Array as="points">
              <mxPoint x="410" y="210" />
              <mxPoint x="410" y="390" />
              <mxPoint x="659" y="390" />
            </Array>
          </mxGeometry>
        </mxCell>
        <mxCell id="JEC0rMKXWwOTcZEWWvVR-49" value="Match Results" style="edgeLabel;html=1;align=center;verticalAlign=middle;resizable=0;points=[];" vertex="1" connectable="0" parent="JEC0rMKXWwOTcZEWWvVR-48">
          <mxGeometry x="0.02" y="1" relative="1" as="geometry">
            <mxPoint as="offset" />
          </mxGeometry>
        </mxCell>
        <mxCell id="JEC0rMKXWwOTcZEWWvVR-50" value="" style="strokeColor=#dddddd;shadow=1;strokeWidth=1;rounded=1;absoluteArcSize=1;arcSize=2;" vertex="1" parent="1">
          <mxGeometry x="620" y="620" width="100" height="60" as="geometry" />
        </mxCell>
        <mxCell id="JEC0rMKXWwOTcZEWWvVR-51" value="Firebase" style="sketch=0;dashed=0;connectable=0;html=1;fillColor=#5184F3;strokeColor=none;shape=mxgraph.gcp2.firebase;part=1;labelPosition=right;verticalLabelPosition=middle;align=left;verticalAlign=middle;spacingLeft=5;fontColor=#999999;fontSize=12;" vertex="1" parent="JEC0rMKXWwOTcZEWWvVR-50">
          <mxGeometry width="32.4" height="45" relative="1" as="geometry">
            <mxPoint x="5" y="7" as="offset" />
          </mxGeometry>
        </mxCell>
        <mxCell id="JEC0rMKXWwOTcZEWWvVR-52" value="" style="edgeStyle=orthogonalEdgeStyle;html=1;endArrow=block;elbow=vertical;startArrow=block;startFill=1;endFill=1;strokeColor=#545B64;rounded=0;" edge="1" parent="1">
          <mxGeometry width="100" relative="1" as="geometry">
            <mxPoint x="520" y="649.33" as="sourcePoint" />
            <mxPoint x="620" y="649.33" as="targetPoint" />
          </mxGeometry>
        </mxCell>
        <mxCell id="JEC0rMKXWwOTcZEWWvVR-53" value="problemTable" style="shape=cylinder3;whiteSpace=wrap;html=1;boundedLbl=1;backgroundOutline=1;size=15;" vertex="1" parent="1">
          <mxGeometry x="770" y="617.5" width="80" height="65" as="geometry" />
        </mxCell>
        <mxCell id="JEC0rMKXWwOTcZEWWvVR-54" style="edgeStyle=orthogonalEdgeStyle;rounded=0;orthogonalLoop=1;jettySize=auto;html=1;exitX=0.5;exitY=1;exitDx=0;exitDy=0;exitPerimeter=0;entryX=0;entryY=0.25;entryDx=0;entryDy=0;entryPerimeter=0;" edge="1" parent="1" source="JEC0rMKXWwOTcZEWWvVR-44" target="JEC0rMKXWwOTcZEWWvVR-38">
          <mxGeometry relative="1" as="geometry" />
        </mxCell>
        <mxCell id="JEC0rMKXWwOTcZEWWvVR-55" value="Get a match problem" style="edgeLabel;html=1;align=center;verticalAlign=middle;resizable=0;points=[];" vertex="1" connectable="0" parent="JEC0rMKXWwOTcZEWWvVR-54">
          <mxGeometry x="-0.317" relative="1" as="geometry">
            <mxPoint x="-17" as="offset" />
          </mxGeometry>
        </mxCell>
        <mxCell id="JEC0rMKXWwOTcZEWWvVR-56" style="edgeStyle=orthogonalEdgeStyle;rounded=0;orthogonalLoop=1;jettySize=auto;html=1;exitX=1;exitY=0.5;exitDx=0;exitDy=0;entryX=0;entryY=0.5;entryDx=0;entryDy=0;entryPerimeter=0;" edge="1" parent="1" source="JEC0rMKXWwOTcZEWWvVR-50" target="JEC0rMKXWwOTcZEWWvVR-53">
          <mxGeometry relative="1" as="geometry" />
        </mxCell>
      </root>
    </mxGraphModel>
  </diagram>
</mxfile>
